<svg width="433" height="443" viewBox="0 0 433 443" fill="none" xmlns="http://www.w3.org/2000/svg">
<g clip-path="url(#clip0_313_693)">
<path d="M241.754 124.701L235.873 93.9963L230.867 66.957V66.9189C230.824 67.0223 230.786 67.131 230.742 67.2289C231.356 70.4049 241.319 122.156 241.537 124.783L241.754 124.701Z" fill="#F8F8F8"/>
<path d="M232.393 60.5508V60.5127C232.396 60.5435 232.396 60.5744 232.393 60.6051V60.5508Z" fill="#F8F8F8"/>
<path d="M382.167 148.244C371.481 129.895 362.479 113.873 353.84 99.8426C319.573 95.9542 299.792 80.4278 282.623 80.4278C280.625 80.4278 277.519 81.2436 276.341 81.2436L273.735 86.138L273.811 92.8761L277.845 93.6375L283.275 96.5361L287.125 100.131L291.838 107.157L291.517 107.369C293.836 108.267 295.66 109.648 296.686 111.655C298.028 114.265 297.914 117.332 296.844 120.514C305.146 151.643 299.76 197.939 296.659 200.511C291.968 204.405 241.955 191.266 237.801 185.469C236.074 183.076 236.427 166.701 239.528 148.342L239.924 148.151C233.11 148.967 226.99 148.151 223.151 144.317C214.399 135.551 218.688 74.103 219.166 67.6369C217.781 64.3602 217.097 60.8292 217.157 57.2714C217.19 48.7768 220.627 41.8756 224.884 41.8756C226.779 41.8756 228.516 43.2515 229.857 45.5247L229.314 44.2195H231.312L233.414 45.6226L236.129 50.5551L236.802 54.3239L236.595 67.7402L244.534 113.476L249.355 113.003L251.804 107.565L257.109 100.104L261.263 95.5735V92.7021C253.205 91.3208 246.928 80.281 246.928 66.8701C246.928 65.8586 246.961 64.8579 247.031 63.879L247.488 58.1253L248.335 56.2273C248.373 56.0805 248.411 55.9336 248.454 55.7922C247.83 55.4496 245.739 53.5244 245.739 46.8897C245.739 33.8377 260.161 26.8223 272.253 24.1031C256.17 17.1421 238.17 11.7418 218.346 7.35312C177.922 -1.42433 130.178 -6.01971 101.281 15.2278C72.3839 36.4753 62.3443 83.2829 45.8488 135.203C29.2338 187.117 6.16822 244.127 18.0756 296.177C29.8527 348.096 76.7168 395.045 128.071 401.626C179.426 408.206 235.216 374.434 294.493 351.947C353.769 329.459 416.515 318.403 430.035 284.125C443.555 249.848 407.958 192.338 382.167 148.244ZM157.625 330.367H126.372L147.58 322.857V318.468H157.625V330.367Z" fill="#F8F8F8"/>
<path d="M250.898 50.5111C250.894 50.2385 250.909 49.966 250.941 49.6953C249.947 51.3594 248.655 55.1336 248.443 55.8297L248.481 55.9113L250.898 50.5111Z" fill="#F8F8F8"/>
<path d="M92.892 421.351H75.8969V441.51H50.9798V421.351H0V413.737L58.9018 333.108H75.8969V399.869H92.892V421.351ZM50.9798 399.869V374.75L33.1648 399.869H50.9798Z" fill="#D3D3D3"/>
<path d="M107.08 387.475C107.08 356.243 116.153 331.618 147.803 331.618C179.296 331.618 188.059 356.243 188.059 387.475C188.059 418.544 179.317 443 147.803 443C116.153 443 107.08 418.544 107.08 387.475ZM163.175 387.475C163.175 368.637 159.542 354.095 147.83 354.095C135.95 354.095 131.829 368.637 131.829 387.475C131.829 406.145 135.95 420.361 147.83 420.361C159.542 420.382 163.175 406.145 163.175 387.475Z" fill="#D3D3D3"/>
<path d="M290.545 421.351H273.55V441.51H248.639V421.351H197.643V413.737L256.555 333.108H273.55V399.869H290.545V421.351ZM248.639 399.869V374.75L230.818 399.869H248.639Z" fill="#D3D3D3"/>
<path d="M291.116 219.822C291.582 224.271 301.394 416.086 301.394 416.086H291.116L241.135 235.479L291.116 219.822Z" fill="black"/>
<path d="M296.681 200.522C297.979 226.73 286.831 248.195 267.474 248.195C240.901 248.195 205.722 231.227 196.041 221.65C193.625 228.807 159.352 318.953 159.352 318.953H145.159C145.159 318.953 154.254 213.993 171.303 187.073C176.912 179.59 214.697 179.868 237.823 185.48C256.181 197.113 290.345 202.306 296.681 200.522Z" fill="black"/>
<path d="M229.314 44.7033C229.914 44.3398 230.613 44.1761 231.312 44.2356C233.392 44.3824 236.791 49.886 236.791 54.34C236.791 58.794 235.536 60.469 235.917 63.7048C236.297 66.9406 244.523 110.817 244.523 113.493C246.135 113.496 247.746 113.392 249.344 113.183" stroke="black" stroke-width="2.5" stroke-linecap="round" stroke-linejoin="round"/>
<path d="M273.54 92.6797C281.858 93.6151 287.847 99.2927 292.082 107.602" stroke="black" stroke-width="2.5" stroke-miterlimit="10" stroke-linecap="round"/>
<path d="M245.549 123.221C249.35 111.475 254.53 101.261 261.252 96.1113" stroke="black" stroke-width="2.5" stroke-miterlimit="10" stroke-linecap="round"/>
<path d="M296.866 120.524C305.168 151.653 299.781 197.95 296.681 200.522C291.99 204.416 241.976 191.277 237.823 185.48C236.096 183.087 236.449 166.712 239.549 148.352" stroke="black" stroke-width="2.5" stroke-miterlimit="10" stroke-linecap="round"/>
<path d="M256.718 118.969C254.508 119.719 241.548 124.782 241.548 124.782C241.33 122.172 231.367 70.399 230.753 67.2284C232.011 64.0639 232.632 60.6819 232.583 57.2763C232.583 48.7762 229.135 41.875 224.884 41.875C220.632 41.875 217.19 48.7762 217.19 57.2763C217.129 60.8341 217.814 64.365 219.199 67.6418C218.721 74.1134 214.431 135.561 223.184 144.322C232.111 153.263 253.335 145.78 267.062 139.661" stroke="black" stroke-width="2.5" stroke-linecap="round" stroke-linejoin="round"/>
<path d="M247.094 59.712L238.959 57.5488L237.45 63.2413L245.585 65.4045L247.094 59.712Z" fill="black"/>
<path d="M286.565 106.222C291.208 106.766 295.019 108.397 296.708 111.66C302.838 123.581 278.562 145.057 271.845 143.458C265.129 141.859 254.296 117.854 256.322 113.547C256.897 112.313 259.976 110.676 264.205 109.245" stroke="black" stroke-width="2.5" stroke-miterlimit="10" stroke-linecap="round"/>
<path d="M261.252 96.112V92.7402" stroke="black" stroke-width="2.5" stroke-linecap="round" stroke-linejoin="round"/>
<path d="M273.539 86.4365V102.632C273.539 103.611 270.645 104.236 267.67 104.329" stroke="black" stroke-width="2.5" stroke-linecap="round" stroke-linejoin="round"/>
<path d="M276.341 81.2324C275.605 83.0669 274.665 84.8126 273.54 86.4369" stroke="black" stroke-width="2.5" stroke-linecap="round" stroke-linejoin="round"/>
<path d="M266.193 92.3595C265.143 92.7164 264.043 92.9 262.935 92.9034C254.074 92.9034 246.895 81.2708 246.895 66.9245C246.878 63.1782 247.392 59.4484 248.421 55.8467" stroke="black" stroke-width="2.5" stroke-linecap="round" stroke-linejoin="round"/>
<path d="M273.909 76.7726C274.223 79.7365 275.342 81.232 276.341 81.232C277.519 81.232 280.625 80.4163 282.623 80.4163C302.246 80.4163 325.29 100.707 369.499 100.707C392.592 100.707 428.83 94.8713 428.83 60.9036C428.83 42.5601 422.238 20.3936 387.395 20.3936C365.269 20.3936 349.767 31.2702 331.589 31.2702C308.241 31.2702 299.238 22.8027 283.107 22.8027C271.617 22.8027 245.761 29.4701 245.761 46.938C245.761 53.5727 247.835 55.4979 248.476 55.8405C248.687 55.1335 249.98 51.3702 250.973 49.7061C250.798 52.1444 251.495 54.5655 252.939 56.5366" stroke="black" stroke-width="2.5" stroke-linecap="round" stroke-linejoin="round"/>
<path d="M270.531 67.2617C270.986 67.78 271.411 68.3248 271.802 68.8932" stroke="black" stroke-width="2.5" stroke-linecap="round" stroke-linejoin="round"/>
<path d="M269.885 69.6596C270.559 69.1998 271.356 68.9552 272.171 68.958C273.103 68.9573 274.007 69.2749 274.734 69.8584C275.461 70.4419 275.968 71.2563 276.17 72.1672C276.373 73.0781 276.259 74.031 275.848 74.8683C275.437 75.7057 274.753 76.3776 273.909 76.7729" stroke="black" stroke-width="2.5" stroke-linecap="round" stroke-linejoin="round"/>
<path d="M232.583 57.277C232.617 60.363 232.119 63.4318 231.111 66.3482C235.732 66.892 239.077 67.289 239.077 67.289L242.264 54.3839C242.264 54.3839 237.551 52.4206 231.681 50.0332C232.293 52.3986 232.596 54.8335 232.583 57.277Z" fill="black"/>
<path d="M217.189 57.2768C217.189 52.4747 218.275 48.1894 220.013 45.3669C214.947 43.371 210.685 41.7504 209.474 41.4458C205.95 40.5757 200.786 61.8994 204.212 62.7532C205.597 63.0958 211.553 63.8952 218.161 64.7327C217.505 62.3023 217.178 59.7945 217.189 57.2768Z" fill="black"/>
<path d="M157.625 318.468V330.367H126.372L147.586 322.857V318.468" stroke="black" stroke-width="2.5" stroke-linecap="round" stroke-linejoin="round"/>
<path d="M300.851 415.635V427.534H272.855L291.854 420.023V415.635" stroke="black" stroke-width="2.5" stroke-linecap="round" stroke-linejoin="round"/>
</g>
<defs>
<clipPath id="clip0_313_693">
<rect width="433" height="443" fill="white"/>
</clipPath>
</defs>
</svg>
