<svg width="434" height="494" viewBox="0 0 434 494" fill="none" xmlns="http://www.w3.org/2000/svg">
<path d="M241.754 125.701L235.873 94.9963L230.867 67.957V67.9189C230.824 68.0223 230.786 68.131 230.742 68.2289C231.356 71.4049 241.319 123.156 241.537 125.783L241.754 125.701Z" fill="#F8F8F8"/>
<path d="M232.393 61.5508V61.5127C232.396 61.5435 232.396 61.5744 232.393 61.6051V61.5508Z" fill="#F8F8F8"/>
<path d="M382.167 149.244C371.481 130.895 362.479 114.873 353.84 100.843C319.573 96.9542 299.792 81.4278 282.623 81.4278C280.625 81.4278 277.519 82.2436 276.341 82.2436L273.735 87.138L273.811 93.8761L277.845 94.6375L283.275 97.5361L287.125 101.131L291.838 108.157L291.517 108.369C293.836 109.267 295.66 110.648 296.686 112.655C298.028 115.265 297.914 118.332 296.844 121.514C305.146 152.643 299.76 198.939 296.659 201.511C291.968 205.405 241.955 192.266 237.801 186.469C236.074 184.076 236.427 167.701 239.528 149.342L239.924 149.151C233.11 149.967 226.99 149.151 223.151 145.317C214.399 136.551 218.688 75.103 219.166 68.6369C217.781 65.3602 217.097 61.8292 217.157 58.2714C217.19 49.7768 220.627 42.8756 224.884 42.8756C226.779 42.8756 228.516 44.2515 229.857 46.5247L229.314 45.2195H231.312L233.414 46.6226L236.129 51.5551L236.802 55.3239L236.595 68.7402L244.534 114.476L249.355 114.003L251.804 108.565L257.109 101.104L261.263 96.5735V93.7021C253.205 92.3208 246.928 81.281 246.928 67.8701C246.928 66.8586 246.961 65.8579 247.031 64.879L247.488 59.1253L248.335 57.2273C248.373 57.0805 248.411 56.9336 248.454 56.7922C247.83 56.4496 245.739 54.5244 245.739 47.8897C245.739 34.8377 260.161 27.8223 272.253 25.1031C256.17 18.1421 238.17 12.7418 218.346 8.35312C177.922 -0.424327 130.178 -5.01971 101.281 16.2278C72.3839 37.4753 62.3443 84.2829 45.8488 136.203C29.2338 188.117 6.16822 245.127 18.0756 297.177C29.8527 349.096 76.7168 396.045 128.071 402.626C179.426 409.206 235.216 375.434 294.493 352.947C353.769 330.459 416.515 319.403 430.035 285.125C443.555 250.848 407.958 193.338 382.167 149.244ZM157.625 331.367H126.372L147.58 323.857V319.468H157.625V331.367Z" fill="#F8F8F8"/>
<path d="M250.898 51.5111C250.894 51.2385 250.909 50.966 250.941 50.6953C249.947 52.3594 248.655 56.1336 248.443 56.8297L248.481 56.9113L250.898 51.5111Z" fill="#F8F8F8"/>
<path d="M92.892 422.351H75.8969V442.51H50.9798V422.351H0V414.737L58.9018 334.108H75.8969V400.869H92.892V422.351ZM50.9798 400.869V375.75L33.1648 400.869H50.9798Z" fill="#D3D3D3"/>
<path d="M107.08 388.475C107.08 357.243 116.153 332.618 147.803 332.618C179.296 332.618 188.059 357.243 188.059 388.475C188.059 419.544 179.317 444 147.803 444C116.153 444 107.08 419.544 107.08 388.475ZM163.175 388.475C163.175 369.637 159.542 355.095 147.83 355.095C135.95 355.095 131.829 369.637 131.829 388.475C131.829 407.145 135.95 421.361 147.83 421.361C159.542 421.382 163.175 407.145 163.175 388.475Z" fill="#D3D3D3"/>
<path d="M291.116 220.822C291.582 225.271 301.394 417.086 301.394 417.086H291.116L241.135 236.479L291.116 220.822Z" fill="black"/>
<path d="M296.681 201.522C297.979 227.73 286.831 249.195 267.474 249.195C240.901 249.195 205.722 232.227 196.041 222.65C193.625 229.807 159.352 319.953 159.352 319.953H145.159C145.159 319.953 154.254 214.993 171.303 188.073C176.912 180.59 214.697 180.868 237.823 186.48C256.181 198.113 290.345 203.306 296.681 201.522Z" fill="black"/>
<path d="M229.314 45.7033C229.914 45.3398 230.613 45.1761 231.312 45.2356C233.392 45.3824 236.791 50.886 236.791 55.34C236.791 59.794 235.536 61.469 235.917 64.7048C236.297 67.9406 244.523 111.817 244.523 114.493C246.135 114.496 247.746 114.392 249.344 114.183" stroke="black" stroke-width="2.5" stroke-linecap="round" stroke-linejoin="round"/>
<path d="M273.54 93.6797C281.858 94.6151 287.847 100.293 292.082 108.602" stroke="black" stroke-width="2.5" stroke-miterlimit="10" stroke-linecap="round"/>
<path d="M245.549 124.221C249.35 112.475 254.53 102.261 261.252 97.1113" stroke="black" stroke-width="2.5" stroke-miterlimit="10" stroke-linecap="round"/>
<path d="M296.866 121.524C305.168 152.653 299.781 198.95 296.681 201.522C291.99 205.416 241.976 192.277 237.823 186.48C236.096 184.087 236.449 167.712 239.549 149.352" stroke="black" stroke-width="2.5" stroke-miterlimit="10" stroke-linecap="round"/>
<path d="M256.718 119.969C254.508 120.719 241.548 125.782 241.548 125.782C241.33 123.172 231.367 71.399 230.753 68.2284C232.011 65.0639 232.632 61.6819 232.583 58.2763C232.583 49.7762 229.135 42.875 224.884 42.875C220.632 42.875 217.19 49.7762 217.19 58.2763C217.129 61.8341 217.814 65.365 219.199 68.6418C218.721 75.1134 214.431 136.561 223.184 145.322C232.111 154.263 253.335 146.78 267.062 140.661" stroke="black" stroke-width="2.5" stroke-linecap="round" stroke-linejoin="round"/>
<path d="M247.094 60.712L238.959 58.5488L237.45 64.2413L245.585 66.4045L247.094 60.712Z" fill="black"/>
<path d="M286.565 107.222C291.208 107.766 295.019 109.397 296.708 112.66C302.838 124.581 278.562 146.057 271.845 144.458C265.129 142.859 254.296 118.854 256.322 114.547C256.897 113.313 259.976 111.676 264.205 110.245" stroke="black" stroke-width="2.5" stroke-miterlimit="10" stroke-linecap="round"/>
<path d="M261.252 97.112V93.7402" stroke="black" stroke-width="2.5" stroke-linecap="round" stroke-linejoin="round"/>
<path d="M273.539 87.4365V103.632C273.539 104.611 270.645 105.236 267.67 105.329" stroke="black" stroke-width="2.5" stroke-linecap="round" stroke-linejoin="round"/>
<path d="M276.341 82.2324C275.605 84.0669 274.665 85.8126 273.54 87.4369" stroke="black" stroke-width="2.5" stroke-linecap="round" stroke-linejoin="round"/>
<path d="M266.193 93.3595C265.143 93.7164 264.043 93.9 262.935 93.9034C254.074 93.9034 246.895 82.2708 246.895 67.9245C246.878 64.1782 247.392 60.4484 248.421 56.8467" stroke="black" stroke-width="2.5" stroke-linecap="round" stroke-linejoin="round"/>
<path d="M273.909 77.7726C274.223 80.7365 275.342 82.232 276.341 82.232C277.519 82.232 280.625 81.4163 282.623 81.4163C302.246 81.4163 325.29 101.707 369.499 101.707C392.592 101.707 428.83 95.8713 428.83 61.9036C428.83 43.5601 422.238 21.3936 387.395 21.3936C365.269 21.3936 349.767 32.2702 331.589 32.2702C308.241 32.2702 299.238 23.8027 283.107 23.8027C271.617 23.8027 245.761 30.4701 245.761 47.938C245.761 54.5727 247.835 56.4979 248.476 56.8405C248.687 56.1335 249.98 52.3702 250.973 50.7061C250.798 53.1444 251.495 55.5655 252.939 57.5366" stroke="black" stroke-width="2.5" stroke-linecap="round" stroke-linejoin="round"/>
<path d="M270.531 68.2617C270.986 68.78 271.411 69.3248 271.802 69.8932" stroke="black" stroke-width="2.5" stroke-linecap="round" stroke-linejoin="round"/>
<path d="M269.885 70.6596C270.559 70.1998 271.356 69.9552 272.171 69.958C273.103 69.9573 274.007 70.2749 274.734 70.8584C275.461 71.4419 275.968 72.2563 276.17 73.1672C276.373 74.0781 276.259 75.031 275.848 75.8683C275.437 76.7057 274.753 77.3776 273.909 77.7729" stroke="black" stroke-width="2.5" stroke-linecap="round" stroke-linejoin="round"/>
<path d="M232.583 58.277C232.617 61.363 232.119 64.4318 231.111 67.3482C235.732 67.892 239.077 68.289 239.077 68.289L242.264 55.3839C242.264 55.3839 237.551 53.4206 231.681 51.0332C232.293 53.3986 232.596 55.8335 232.583 58.277Z" fill="black"/>
<path d="M217.189 58.2768C217.189 53.4747 218.275 49.1894 220.013 46.3669C214.947 44.371 210.685 42.7504 209.474 42.4458C205.95 41.5757 200.786 62.8994 204.212 63.7532C205.597 64.0958 211.553 64.8952 218.161 65.7327C217.505 63.3023 217.178 60.7945 217.189 58.2768Z" fill="black"/>
<path d="M157.625 319.468V331.367H126.372L147.586 323.857V319.468" stroke="black" stroke-width="2.5" stroke-linecap="round" stroke-linejoin="round"/>
<path d="M300.851 416.635V428.534H272.855L291.854 421.023V416.635" stroke="black" stroke-width="2.5" stroke-linecap="round" stroke-linejoin="round"/>
<path d="M232.23 443V354.055C230.707 355.461 228.832 356.867 226.605 358.273C224.438 359.621 222.152 360.91 219.75 362.141C217.348 363.312 214.975 364.396 212.631 365.393C210.287 366.33 208.236 367.062 206.479 367.59V350.275C208.471 349.455 210.756 348.225 213.334 346.584C215.971 344.943 218.52 343.215 220.98 341.398C223.441 339.523 225.668 337.736 227.66 336.037C229.652 334.338 231 333.02 231.703 332.082H250.6V443H232.23Z" fill="#D3D3D3"/>
</svg>
