<svg width="422" height="493" viewBox="0 0 422 493" fill="none" xmlns="http://www.w3.org/2000/svg">
<path d="M229.754 125.701L223.873 94.9963L218.867 67.957V67.9189C218.824 68.0223 218.786 68.131 218.742 68.2289C219.356 71.4049 229.319 123.156 229.537 125.783L229.754 125.701Z" fill="#F8F8F8"/>
<path d="M220.393 61.5508V61.5127C220.395 61.5435 220.395 61.5744 220.393 61.6051V61.5508Z" fill="#F8F8F8"/>
<path d="M370.167 149.244C359.481 130.895 350.479 114.873 341.84 100.843C307.573 96.9542 287.792 81.4278 270.623 81.4278C268.625 81.4278 265.519 82.2436 264.341 82.2436L261.735 87.138L261.811 93.8761L265.845 94.6375L271.275 97.5361L275.125 101.131L279.838 108.157L279.517 108.369C281.836 109.267 283.66 110.648 284.686 112.655C286.028 115.265 285.914 118.332 284.844 121.514C293.146 152.643 287.76 198.939 284.659 201.511C279.968 205.405 229.955 192.266 225.801 186.469C224.074 184.076 224.427 167.701 227.528 149.342L227.924 149.151C221.11 149.967 214.99 149.151 211.151 145.317C202.399 136.551 206.688 75.103 207.166 68.6369C205.781 65.3602 205.097 61.8292 205.157 58.2714C205.19 49.7768 208.627 42.8756 212.884 42.8756C214.779 42.8756 216.516 44.2515 217.857 46.5247L217.314 45.2195H219.312L221.414 46.6226L224.129 51.5551L224.802 55.3239L224.595 68.7402L232.534 114.476L237.355 114.003L239.804 108.565L245.109 101.104L249.263 96.5735V93.7021C241.205 92.3208 234.928 81.281 234.928 67.8701C234.928 66.8586 234.961 65.8579 235.031 64.879L235.488 59.1253L236.335 57.2273C236.373 57.0805 236.411 56.9336 236.454 56.7922C235.83 56.4496 233.739 54.5244 233.739 47.8897C233.739 34.8377 248.161 27.8223 260.253 25.1031C244.17 18.1421 226.17 12.7418 206.346 8.35312C165.922 -0.424327 118.178 -5.01971 89.281 16.2278C60.3839 37.4753 50.3443 84.2829 33.8488 136.203C17.2338 188.117 -5.83178 245.127 6.07564 297.177C17.8527 349.096 64.7168 396.045 116.071 402.626C167.426 409.206 223.216 375.434 282.493 352.947C341.769 330.459 404.515 319.403 418.035 285.125C431.555 250.848 395.958 193.338 370.167 149.244ZM145.625 331.367H114.372L135.58 323.857V319.468H145.625V331.367Z" fill="#F8F8F8"/>
<path d="M238.898 51.512C238.894 51.2395 238.909 50.967 238.941 50.6963C237.947 52.3604 236.655 56.1346 236.443 56.8307L236.481 56.9123L238.898 51.512Z" fill="#F8F8F8"/>
<path d="M85.4395 389.857C85.4395 358.625 94.5119 334 126.163 334C157.656 334 166.419 358.625 166.419 389.857C166.419 420.925 157.678 445.382 126.163 445.382C94.5119 445.382 85.4395 420.925 85.4395 389.857ZM141.534 389.857C141.534 371.019 137.902 356.477 126.19 356.477C114.309 356.477 110.188 371.019 110.188 389.857C110.188 408.526 114.309 422.742 126.19 422.742C137.902 422.764 141.534 408.526 141.534 389.857Z" fill="#D9D9D9"/>
<path d="M179.677 389.857C179.677 358.626 188.749 334 220.4 334C251.893 334 260.656 358.626 260.656 389.857C260.656 420.926 251.915 445.383 220.4 445.383C188.749 445.383 179.677 420.926 179.677 389.857ZM235.771 389.857C235.771 371.019 232.139 356.477 220.427 356.477C208.546 356.477 204.425 371.019 204.425 389.857C204.425 408.527 208.546 422.743 220.427 422.743C232.139 422.765 235.771 408.527 235.771 389.857Z" fill="#D9D9D9"/>
<path d="M279.116 220.823C279.582 225.272 289.394 417.087 289.394 417.087H279.116L229.135 236.48L279.116 220.823Z" fill="black"/>
<path d="M284.681 201.522C285.979 227.73 274.831 249.195 255.474 249.195C228.901 249.195 193.722 232.227 184.041 222.65C181.625 229.807 147.352 319.953 147.352 319.953H133.159C133.159 319.953 142.254 214.993 159.303 188.073C164.912 180.59 202.697 180.868 225.823 186.48C244.181 198.113 278.345 203.306 284.681 201.522Z" fill="black"/>
<path d="M217.314 45.7033C217.914 45.3398 218.614 45.1761 219.313 45.2356C221.392 45.3824 224.791 50.886 224.791 55.34C224.791 59.794 223.537 61.469 223.917 64.7048C224.297 67.9406 232.523 111.817 232.523 114.493C234.135 114.496 235.746 114.392 237.345 114.183" stroke="black" stroke-width="2.5" stroke-linecap="round" stroke-linejoin="round"/>
<path d="M261.54 93.6807C269.858 94.6161 275.847 100.294 280.082 108.603" stroke="black" stroke-width="2.5" stroke-miterlimit="10" stroke-linecap="round"/>
<path d="M233.549 124.222C237.35 112.476 242.53 102.262 249.252 97.1123" stroke="black" stroke-width="2.5" stroke-miterlimit="10" stroke-linecap="round"/>
<path d="M284.866 121.524C293.168 152.653 287.781 198.95 284.681 201.522C279.99 205.416 229.976 192.277 225.823 186.48C224.096 184.087 224.449 167.712 227.549 149.352" stroke="black" stroke-width="2.5" stroke-miterlimit="10" stroke-linecap="round"/>
<path d="M244.718 119.97C242.508 120.72 229.548 125.783 229.548 125.783C229.33 123.173 219.367 71.4 218.753 68.2294C220.011 65.0648 220.632 61.6829 220.583 58.2773C220.583 49.7772 217.135 42.876 212.884 42.876C208.632 42.876 205.19 49.7772 205.19 58.2773C205.129 61.835 205.814 65.366 207.199 68.6427C206.721 75.1143 202.431 136.562 211.184 145.323C220.111 154.264 241.335 146.78 255.062 140.662" stroke="black" stroke-width="2.5" stroke-linecap="round" stroke-linejoin="round"/>
<path d="M235.094 60.712L226.959 58.5488L225.45 64.2413L233.585 66.4045L235.094 60.712Z" fill="black"/>
<path d="M274.565 107.222C279.208 107.766 283.019 109.397 284.708 112.66C290.838 124.581 266.562 146.057 259.845 144.458C253.129 142.859 242.296 118.854 244.322 114.547C244.897 113.313 247.976 111.676 252.205 110.245" stroke="black" stroke-width="2.5" stroke-miterlimit="10" stroke-linecap="round"/>
<path d="M249.252 97.112V93.7402" stroke="black" stroke-width="2.5" stroke-linecap="round" stroke-linejoin="round"/>
<path d="M261.539 87.4375V103.633C261.539 104.612 258.645 105.237 255.67 105.33" stroke="black" stroke-width="2.5" stroke-linecap="round" stroke-linejoin="round"/>
<path d="M264.341 82.2324C263.605 84.0669 262.665 85.8126 261.54 87.4369" stroke="black" stroke-width="2.5" stroke-linecap="round" stroke-linejoin="round"/>
<path d="M254.193 93.3595C253.144 93.7164 252.044 93.9 250.935 93.9034C242.074 93.9034 234.896 82.2708 234.896 67.9245C234.878 64.1782 235.392 60.4484 236.422 56.8467" stroke="black" stroke-width="2.5" stroke-linecap="round" stroke-linejoin="round"/>
<path d="M261.909 77.7736C262.223 80.7375 263.342 82.233 264.341 82.233C265.519 82.233 268.625 81.4172 270.623 81.4172C290.246 81.4172 313.29 101.708 357.499 101.708C380.592 101.708 416.83 95.8723 416.83 61.9046C416.83 43.5611 410.238 21.3945 375.395 21.3945C353.269 21.3945 337.767 32.2712 319.589 32.2712C296.241 32.2712 287.238 23.8037 271.107 23.8037C259.617 23.8037 233.761 30.4711 233.761 47.939C233.761 54.5737 235.835 56.4989 236.476 56.8415C236.687 56.1345 237.98 52.3712 238.973 50.7071C238.798 53.1454 239.495 55.5665 240.939 57.5376" stroke="black" stroke-width="2.5" stroke-linecap="round" stroke-linejoin="round"/>
<path d="M258.531 68.2617C258.986 68.78 259.411 69.3248 259.802 69.8932" stroke="black" stroke-width="2.5" stroke-linecap="round" stroke-linejoin="round"/>
<path d="M257.885 70.6596C258.559 70.1998 259.356 69.9552 260.171 69.958C261.103 69.9573 262.007 70.2749 262.734 70.8584C263.461 71.4419 263.968 72.2563 264.17 73.1672C264.373 74.0781 264.259 75.031 263.848 75.8683C263.437 76.7057 262.753 77.3776 261.909 77.7729" stroke="black" stroke-width="2.5" stroke-linecap="round" stroke-linejoin="round"/>
<path d="M220.583 58.277C220.617 61.363 220.119 64.4318 219.111 67.3482C223.732 67.892 227.077 68.289 227.077 68.289L230.264 55.3839C230.264 55.3839 225.551 53.4206 219.681 51.0332C220.293 53.3986 220.596 55.8335 220.583 58.277Z" fill="black"/>
<path d="M205.19 58.2768C205.19 53.4747 206.276 49.1894 208.013 46.3669C202.947 44.371 198.685 42.7504 197.474 42.4458C193.95 41.5757 188.787 62.8994 192.213 63.7532C193.597 64.0958 199.554 64.8952 206.162 65.7327C205.505 63.3023 205.178 60.7945 205.19 58.2768Z" fill="black"/>
<path d="M145.625 319.469V331.368H114.372L135.586 323.857V319.469" stroke="black" stroke-width="2.5" stroke-linecap="round" stroke-linejoin="round"/>
<path d="M288.851 416.635V428.534H260.855L279.854 421.023V416.635" stroke="black" stroke-width="2.5" stroke-linecap="round" stroke-linejoin="round"/>
<path d="M80.6641 407.086C80.6641 411.529 79.9235 415.944 78.4424 420.331C76.9613 424.717 74.5972 428.676 71.3501 432.208C68.16 435.683 64.0584 438.531 59.0454 440.753C54.0894 442.918 48.1079 444 41.1011 444C36.4299 444 32.3853 443.487 28.9673 442.462C25.5493 441.437 22.6156 440.098 20.166 438.446C17.7165 436.794 15.7227 434.942 14.1846 432.892C12.6465 430.784 11.4217 428.705 10.5103 426.654C9.65576 424.546 9.05762 422.552 8.71582 420.672C8.37402 418.736 8.20312 417.112 8.20312 415.802H25.0366C25.2645 417.796 25.7772 419.761 26.5747 421.698C27.4292 423.578 28.5685 425.258 29.9927 426.739C31.4738 428.22 33.2113 429.417 35.2051 430.328C37.1989 431.183 39.4775 431.61 42.041 431.61C45.459 431.61 48.4212 430.983 50.9277 429.73C53.4342 428.42 55.485 426.682 57.0801 424.518C58.7321 422.296 59.9569 419.704 60.7544 416.742C61.5519 413.722 61.9507 410.504 61.9507 407.086C61.9507 403.725 61.5804 400.677 60.8398 397.943C60.1562 395.208 59.0454 392.901 57.5073 391.021C56.0262 389.085 54.0609 387.604 51.6113 386.578C49.2188 385.553 46.3135 385.04 42.8955 385.04C39.8763 385.04 37.2843 385.439 35.1196 386.236C32.9549 387.034 31.132 388.116 29.6509 389.483C28.1698 390.851 26.9735 392.446 26.062 394.269C25.2075 396.035 24.5809 397.914 24.1821 399.908H10.5103L12.561 335.992H73.1445V352.655H25.7202L24.5239 382.391C26.2899 380.625 28.0273 379.116 29.7363 377.862C31.5023 376.609 33.3252 375.584 35.2051 374.786C37.085 373.989 39.0503 373.419 41.1011 373.077C43.2088 372.735 45.4305 372.564 47.7661 372.564C53.1209 372.564 57.8491 373.561 61.9507 375.555C66.0522 377.492 69.4987 380.084 72.29 383.331C75.0814 386.521 77.1606 390.195 78.5278 394.354C79.952 398.456 80.6641 402.7 80.6641 407.086Z" fill="#D3D3D3"/>
</svg>
